<?xml version="1.0" encoding="utf-8" ?>
<svg baseProfile="full" height="100%" version="1.1" width="100%" xmlns="http://www.w3.org/2000/svg" xmlns:ev="http://www.w3.org/2001/xml-events" xmlns:xlink="http://www.w3.org/1999/xlink"><defs /><g id="hlines" stroke="gray"><line x1="2cm" x2="18cm" y1="2cm" y2="2cm" /><line x1="2cm" x2="18cm" y1="3cm" y2="3cm" /><line x1="2cm" x2="18cm" y1="4cm" y2="4cm" /><line x1="2cm" x2="18cm" y1="5cm" y2="5cm" /><line x1="2cm" x2="18cm" y1="6cm" y2="6cm" /><line x1="2cm" x2="18cm" y1="7cm" y2="7cm" /><line x1="2cm" x2="18cm" y1="8cm" y2="8cm" /><line x1="2cm" x2="18cm" y1="9cm" y2="9cm" /><line x1="2cm" x2="18cm" y1="10cm" y2="10cm" /><line x1="2cm" x2="18cm" y1="11cm" y2="11cm" /><line x1="2cm" x2="18cm" y1="12cm" y2="12cm" /><line x1="2cm" x2="18cm" y1="13cm" y2="13cm" /><line x1="2cm" x2="18cm" y1="14cm" y2="14cm" /><line x1="2cm" x2="18cm" y1="15cm" y2="15cm" /><line x1="2cm" x2="18cm" y1="16cm" y2="16cm" /><line x1="2cm" x2="18cm" y1="17cm" y2="17cm" /><line x1="2cm" x2="18cm" y1="18cm" y2="18cm" /><line x1="2cm" x2="18cm" y1="19cm" y2="19cm" /><line x1="2cm" x2="18cm" y1="20cm" y2="20cm" /><line x1="2cm" x2="18cm" y1="21cm" y2="21cm" /></g><g id="vline" stroke="black"><line x1="2cm" x2="2cm" y1="2cm" y2="21cm" /><line x1="3cm" x2="3cm" y1="2cm" y2="21cm" /><line x1="4cm" x2="4cm" y1="2cm" y2="21cm" /><line x1="5cm" x2="5cm" y1="2cm" y2="21cm" /><line x1="6cm" x2="6cm" y1="2cm" y2="21cm" /><line x1="7cm" x2="7cm" y1="2cm" y2="21cm" /><line x1="8cm" x2="8cm" y1="2cm" y2="21cm" /><line x1="9cm" x2="9cm" y1="2cm" y2="21cm" /><line x1="10cm" x2="10cm" y1="2cm" y2="21cm" /><line x1="11cm" x2="11cm" y1="2cm" y2="21cm" /><line x1="12cm" x2="12cm" y1="2cm" y2="21cm" /><line x1="13cm" x2="13cm" y1="2cm" y2="21cm" /><line x1="14cm" x2="14cm" y1="2cm" y2="21cm" /><line x1="15cm" x2="15cm" y1="2cm" y2="21cm" /><line x1="16cm" x2="16cm" y1="2cm" y2="21cm" /><line x1="17cm" x2="17cm" y1="2cm" y2="21cm" /><line x1="18cm" x2="18cm" y1="2cm" y2="21cm" /></g><g fill="red" id="shapes"><circle class="class1 class2" cx="5cm" cy="5cm" fill="black" r="2.5cm" stroke="blue" stroke-width="3" /><circle class="class1 class2" cx="15cm" cy="5cm" fill="black" r="2.5cm" stroke="blue" stroke-width="3" /><circle class="class1 class2" cx="10cm" cy="10cm" fill="rgb(255,153,153)" r="5.5cm" stroke="blue" stroke-width="3" /><circle class="class1 class2" cx="8cm" cy="8cm" fill="white" r=".85cm" stroke="black" stroke-width="3" /><circle class="class1 class2" cx="12cm" cy="8cm" fill="white" r=".85cm" stroke="black" stroke-width="3" /><circle class="class1 class2" cx="8cm" cy="8cm" fill="black" r=".25cm" stroke="black" stroke-width="3" /><circle class="class1 class2" cx="12cm" cy="8cm" fill="black" r=".25cm" stroke="black" stroke-width="3" /><circle class="class1 class2" cx="10cm" cy="12cm" fill="red" r="2.5cm" stroke="black" stroke-width="3" /><circle class="class1 class2" cx="10cm" cy="11cm" fill="rgb(255,153,153)" r="2.5cm" stroke="rgb(255,153,153)" stroke-width="3" /></g></svg>